<svg id="Layer_1" enable-background="new 0 0 512 512" height="512" viewBox="0 0 512 512" width="512" xmlns="http://www.w3.org/2000/svg"><g><g><g><g id="XMLID_1350_"><g id="XMLID_1351_"><g id="XMLID_1352_"><g id="XMLID_1353_"><g id="XMLID_1354_"><g id="XMLID_1355_"><g id="XMLID_1356_"><g id="XMLID_1357_"><g id="XMLID_1358_"><g id="XMLID_1359_"><g id="XMLID_1360_"><g id="XMLID_1361_"><g id="XMLID_1362_"><g id="XMLID_1363_"><g id="XMLID_1364_"><circle cx="256" cy="256" fill="#605553" r="256"/></g></g></g></g></g></g></g></g></g></g></g></g></g></g></g></g></g><path d="m512 256c0-9.6-.546-19.072-1.576-28.397l-20.199-20.199s-26.656 2.197-26.745 2.115l-66.664-66.664-89.756-22.918-53.975-53.767-20.135 12.33-12.577 19.377-31.918-31.707-135.561 236.973 95.971 95.658 3.469 30.074 79.424 81.975c7.982.75 16.064 1.15 24.242 1.15 141.385 0 256-114.615 256-256z" fill="#4c403f"/><g><g><path d="m130.43 142.321 28.331-72.073c4.909-12.488 21.599-14.781 29.693-4.078l44.495 58.832z" fill="#fbbe2c"/></g><g><g><path d="m147.279 370.578-4.783 37.73c-1.594 12.576 8.207 23.697 20.883 23.697 7.213 0 13.924-3.693 17.784-9.787l26.678-42.123z" fill="#fed940"/></g><g><path d="m365.301 370.578 4.783 37.73c1.594 12.576-8.207 23.697-20.883 23.697-7.213 0-13.924-3.693-17.784-9.787l-26.678-42.123z" fill="#fbbe2c"/></g></g><g><path d="m409.934 268.202h-10.662v-30.503h10.662c23.591 0 44.535-15.859 50.931-38.567l29.361 8.271c-10.084 35.798-43.101 60.799-80.292 60.799z" fill="#fbbe2c"/></g><g><path d="m96.016 309.247h-26.078c-14.825 0-26.844-12.018-26.844-26.844v-72.573c0-14.825 12.018-26.844 26.844-26.844h26.078z" fill="#fed940"/></g><g><path d="m313.265 386.243h-113.95c-62.453 0-113.552-51.098-113.552-113.552v-53.149c0-62.453 51.098-113.552 113.552-113.552h113.95c62.453 0 113.552 51.098 113.552 113.552v53.149c0 62.454-51.098 113.552-113.552 113.552z" fill="#ffe780"/></g><g><path d="m426.82 219.54v53.15c0 62.46-51.1 113.55-113.55 113.55h-55.27v-280.25h55.27c62.45 0 113.55 51.1 113.55 113.55z" fill="#fed940"/></g><g><path d="m195.06 142.321 28.331-72.073c4.909-12.488 21.599-14.781 29.693-4.078l44.595 76.151z" fill="#fed940"/></g><g><path d="m297.68 142.32h-39.68v-67.75l18.4 31.42z" fill="#fbbe2c"/></g><g><ellipse cx="166.378" cy="208.883" fill="#776d6b" rx="21.682" ry="21.682" transform="matrix(.16 -.987 .987 .16 -66.459 339.653)"/></g><g><g><path d="m258 192.059h101.764v33.647h-101.764z" fill="#fd9827"/></g></g></g></g></svg>