<svg id="Capa_1" enable-background="new 0 0 512 512" height="512" viewBox="0 0 512 512" width="512" xmlns="http://www.w3.org/2000/svg"><g><path d="m330.304 56.908-64-53.185c-5.973-4.963-14.636-4.964-20.609 0l-64 53.185c-6.848 5.691-7.786 15.856-2.096 22.704 3.189 3.837 7.781 5.818 12.409 5.818 3.631 0 7.285-1.221 10.296-3.723l37.696-31.326v119.921h32v-119.92l37.695 31.325c6.848 5.692 17.013 4.754 22.704-2.095 5.691-6.848 4.753-17.013-2.095-22.704z" fill="#8ac9fe"/><circle cx="256" cy="271.842" fill="#fee97d" r="112.157"/><circle cx="255.845" cy="271.907" fill="#fece85" r="80"/><path d="m175.845 271.907c0-32.02 18.819-59.634 45.994-72.417 15.267-18.057 36.123-31.238 59.916-36.829-8.27-1.943-16.892-2.976-25.755-2.976-61.943 0-112.158 50.215-112.158 112.157 0 61.943 50.215 112.158 112.158 112.158 8.863 0 17.485-1.032 25.755-2.976-23.702-5.57-44.491-18.67-59.742-36.621-27.268-12.748-46.168-40.408-46.168-72.496z" fill="#fee45a"/><path d="m221.839 199.49c-27.175 12.783-45.994 40.397-45.994 72.417 0 32.088 18.9 59.748 46.168 72.496-16.619-19.56-26.66-44.882-26.66-72.561-.001-27.581 9.972-52.821 26.486-72.352z" fill="#fec165"/><path d="m378.704 448h-209.695c-3.983 0-7.211-3.229-7.211-7.211v-17.577c0-3.983 3.229-7.211 7.211-7.211l23.694-10.302h129.487l20.801 10.301h35.713c3.983 0 7.211 3.229 7.211 7.211v17.577c.001 3.983-3.228 7.212-7.211 7.212z" fill="#fece85"/><path d="m161.798 423.211v17.577c0 3.983 3.229 7.211 7.211 7.211h23.694v-42.302l-23.694 10.303c-3.983 0-7.211 3.229-7.211 7.211z" fill="#fec165"/><path d="m378.704 512h-209.695c-3.983 0-7.211-3.229-7.211-7.211v-17.577c0-3.983 3.229-7.211 7.211-7.211l23.694-10.302h134.895l15.393 10.301h35.713c3.983 0 7.211 3.229 7.211 7.211v17.577c.001 3.983-3.228 7.212-7.211 7.212z" fill="#fece85"/><path d="m161.798 487.211v17.577c0 3.983 3.229 7.211 7.211 7.211h23.694v-42.302l-23.694 10.303c-3.983 0-7.211 3.229-7.211 7.211z" fill="#fec165"/><path d="m283.966 288.937c0-13.083-10.643-23.727-23.727-23.727h-8.789c-4.562 0-8.273-3.712-8.273-8.274s3.711-8.274 8.273-8.274h7.852c2.994 0 5.585 1.928 6.446 4.796 1.226 4.088 5.533 6.406 9.621 5.18 4.087-1.226 6.406-5.534 5.18-9.621-2.418-8.06-8.98-13.866-16.978-15.403v-9.55c0-4.267-3.459-7.726-7.726-7.726s-7.726 3.459-7.726 7.726v9.379c-11.511 1.625-20.394 11.541-20.394 23.493 0 13.083 10.643 23.727 23.726 23.727h8.789c4.562 0 8.274 3.712 8.274 8.274s-3.712 8.273-8.274 8.273h-9.913c-2.994 0-5.585-1.927-6.445-4.795-1.225-4.088-5.531-6.409-9.62-5.181-4.087 1.226-6.407 5.533-5.181 9.62 2.622 8.742 10.119 14.833 19.038 15.701v9.253c0 4.267 3.459 7.726 7.726 7.726s7.726-3.459 7.726-7.726v-9.379c11.511-1.624 20.395-11.54 20.395-23.492z" fill="#fee97d"/><path d="m342.991 416h-209.695c-3.983 0-7.211-3.229-7.211-7.211v-17.577c0-3.983 3.229-7.211 7.211-7.211h209.695c3.983 0 7.211 3.229 7.211 7.211v17.577c0 3.982-3.228 7.211-7.211 7.211z" fill="#fee97d"/><path d="m126.084 391.211v17.577c0 3.983 3.229 7.211 7.211 7.211h28.502v-32h-28.502c-3.982.001-7.211 3.23-7.211 7.212z" fill="#fee45a"/><path d="m342.991 480h-209.695c-3.983 0-7.211-3.229-7.211-7.211v-17.577c0-3.983 3.229-7.211 7.211-7.211h209.695c3.983 0 7.211 3.229 7.211 7.211v17.577c0 3.982-3.228 7.211-7.211 7.211z" fill="#fee97d"/><path d="m126.084 455.211v17.577c0 3.983 3.229 7.211 7.211 7.211h28.502v-32h-28.502c-3.982.001-7.211 3.23-7.211 7.212z" fill="#fee45a"/></g></svg>